# Blender v3.0.1 OBJ File: 'platform_one.blend'
# www.blender.org
mtllib platform_one.mtl
o Cube
v 1.000000 0.315471 -4.445647
v 1.000000 -0.168255 -4.445647
v 1.000000 0.315471 1.000000
v 1.000000 -0.168255 1.000000
v -1.000000 0.315471 -4.445647
v -1.000000 -0.168255 -4.445647
v -1.000000 0.315471 1.000000
v -1.000000 -0.168255 1.000000
v 1.000000 -0.168255 -4.992714
v -1.000000 -0.168255 -4.992714
v 1.000000 0.315471 -4.992714
v -1.000000 0.315471 -4.992714
v 1.000000 -1.377280 -4.445647
v -1.000000 -1.377280 -4.445647
v 1.000000 -1.377280 -4.992714
v -1.000000 -1.377280 -4.992714
vt 0.875000 0.500000
vt 0.625000 0.750000
vt 0.625000 0.500000
vt 0.375000 1.000000
vt 0.375000 0.750000
vt 0.625000 0.000000
vt 0.375000 0.250000
vt 0.375000 0.000000
vt 0.375000 0.500000
vt 0.125000 0.750000
vt 0.125000 0.500000
vt 0.375000 0.500000
vt 0.625000 0.250000
vt 0.375000 0.500000
vt 0.375000 0.250000
vt 0.875000 0.500000
vt 0.625000 0.500000
vt 0.625000 0.250000
vt 0.125000 0.500000
vt 0.375000 0.500000
vt 0.375000 0.250000
vt 0.375000 0.250000
vt 0.875000 0.750000
vt 0.625000 1.000000
vt 0.125000 0.500000
vn 0.0000 1.0000 0.0000
vn 0.0000 0.0000 1.0000
vn -1.0000 0.0000 0.0000
vn 0.0000 -1.0000 0.0000
vn 1.0000 0.0000 0.0000
vn 0.0000 0.0000 -1.0000
usemtl Material
s off
f 5/1/1 3/2/1 1/3/1
f 3/2/2 8/4/2 4/5/2
f 7/6/3 6/7/3 8/8/3
f 2/9/4 8/10/4 6/11/4
f 1/3/5 4/5/5 2/9/5
f 6/11/2 13/12/2 2/9/2
f 12/13/6 9/14/6 10/15/6
f 1/3/1 12/16/1 5/1/1
f 2/9/5 11/17/5 1/3/5
f 5/18/3 10/15/3 6/7/3
f 14/19/4 15/20/4 13/12/4
f 9/14/6 16/21/6 10/15/6
f 2/9/5 15/20/5 9/14/5
f 10/15/3 14/22/3 6/7/3
f 5/1/1 7/23/1 3/2/1
f 3/2/2 7/24/2 8/4/2
f 7/6/3 5/18/3 6/7/3
f 2/9/4 4/5/4 8/10/4
f 1/3/5 3/2/5 4/5/5
f 6/11/2 14/19/2 13/12/2
f 12/13/6 11/17/6 9/14/6
f 1/3/1 11/17/1 12/16/1
f 2/9/5 9/14/5 11/17/5
f 5/18/3 12/13/3 10/15/3
f 14/19/4 16/25/4 15/20/4
f 9/14/6 15/20/6 16/21/6
f 2/9/5 13/12/5 15/20/5
f 10/15/3 16/21/3 14/22/3
